<svg width="159" height="33" viewBox="0 0 159 33" fill="none" xmlns="http://www.w3.org/2000/svg">
<path d="M0.76 2.88H19.8L20.28 8.88H20.04C18 4.32 16.68 3.52 12.36 3.52H7.16V17.32H11.64C15.24 17.32 16.04 16.36 16.72 13.4H16.96V22.16H16.72C16.04 19.32 15.24 17.96 11.64 17.96H7.16V27C7.16 29.96 7.32 31.76 10.04 31.76V32H0.76V31.76C3.48 31.76 3.64 29.96 3.64 27V7.88C3.64 4.92 3.48 3.12 0.76 3.12V2.88ZM36.7741 27.08L37.0141 27.24C35.6141 29.64 33.1741 32.48 28.9341 32.48C23.6141 32.48 20.3741 27.8 20.3741 21.84C20.3741 15.24 24.6541 10.56 29.8141 10.56C34.0141 10.56 37.2141 13.52 36.9741 18.56H23.8941C23.8141 19.16 23.7741 19.76 23.7741 20.36C23.7741 26.04 26.0141 30.52 30.4941 30.52C33.2541 30.52 35.4941 28.92 36.7741 27.08ZM29.6141 11.12C26.5341 11.12 24.5741 14.2 23.9741 17.92H33.5341C33.8541 13.8 32.6541 11.12 29.6141 11.12ZM48.8963 10.56C49.3763 10.56 49.8963 10.64 50.4563 10.88L49.6563 14.32H49.4162C48.5363 13.72 47.4963 13.36 46.6563 13.36C45.5763 13.36 44.5363 13.96 43.4563 15.48V27.84C43.4563 30.4 43.5763 31.76 45.2163 31.76V32H38.4563V31.76C40.0963 31.76 40.2163 30.4 40.2163 27.84V16.24C40.2163 13.68 39.5363 12.84 38.1763 12.48V12.24L43.2963 10.64H43.4563V14.92C45.0963 12.4 46.8563 10.56 48.8963 10.56ZM68.0159 0.719997V27.08C68.0159 29.64 68.6559 30.6 70.0559 31V31.24L65.6159 32.48H65.4559L64.8159 28.6C63.2559 30.76 61.1759 32.48 58.2959 32.48C53.6159 32.48 50.2959 28.12 50.2959 21.92C50.2959 15.08 54.4959 10.56 60.0559 10.56C61.8559 10.56 63.4559 11.08 64.7759 11.88V6C64.7759 3.44 64.0959 2.6 62.7359 2.24V2L67.8559 0.719997H68.0159ZM59.8959 30.68C61.9359 30.68 63.5359 29.52 64.7759 28.08V17.28C64.7759 13.72 62.9759 11.12 59.8959 11.12C55.8159 11.12 53.7759 15.76 53.7759 20.88C53.7759 26.16 55.8159 30.68 59.8959 30.68ZM74.2678 7.24C72.9878 7.24 71.9878 6.24 71.9878 5C71.9878 3.76 72.9878 2.76 74.2678 2.76C75.5078 2.76 76.5078 3.76 76.5078 5C76.5078 6.24 75.5078 7.24 74.2678 7.24ZM78.0678 32H71.3078V31.76C72.9478 31.76 73.0678 30.4 73.0678 27.84V16.24C73.0678 13.68 72.3878 12.84 71.0278 12.48V12.24L76.1478 10.64H76.3078V27.84C76.3078 30.4 76.4278 31.76 78.0678 31.76V32ZM96.9891 16.8V27.84C96.9891 30.4 97.1091 31.76 98.7491 31.76V32H91.9891V31.76C93.6291 31.76 93.7491 30.4 93.7491 27.84V17.68C93.7491 14.64 92.7891 12.72 89.9891 12.72C88.2291 12.72 86.3091 13.6 84.5891 14.96V27.84C84.5891 30.4 84.7091 31.76 86.3491 31.76V32H79.5891V31.76C81.2291 31.76 81.3491 30.4 81.3491 27.84V16.24C81.3491 13.68 80.6691 12.84 79.3091 12.48V12.24L84.4291 10.64H84.5891V14.56C86.7091 12.36 89.2291 10.56 91.9091 10.56C95.0291 10.56 96.9891 12.76 96.9891 16.8ZM116.817 29.64L117.057 29.8C116.417 31 115.097 32.48 113.297 32.48C111.297 32.48 110.857 30.52 110.777 29.08C109.137 31.12 106.737 32.48 104.457 32.48C101.737 32.48 99.8169 30.76 99.8169 28.28C99.8169 25.4 102.017 23.44 106.857 22.04L110.657 20.96V17.88C110.657 16.72 110.657 12.36 106.617 12.36C103.937 12.36 101.977 14.24 100.737 16.64L100.497 16.52C101.137 14.32 103.457 10.56 108.097 10.56C111.977 10.56 113.857 13.24 113.857 17V27.56C113.857 29.2 113.937 30.56 115.177 30.56C116.017 30.56 116.577 29.96 116.817 29.64ZM106.297 30.68C107.897 30.68 109.577 29.64 110.657 28.68V21.56L107.817 22.48C104.137 23.68 103.057 24.92 103.057 27.24C103.057 29.36 104.417 30.68 106.297 30.68ZM135.075 16.8V27.84C135.075 30.4 135.195 31.76 136.835 31.76V32H130.075V31.76C131.715 31.76 131.835 30.4 131.835 27.84V17.68C131.835 14.64 130.875 12.72 128.075 12.72C126.315 12.72 124.395 13.6 122.675 14.96V27.84C122.675 30.4 122.795 31.76 124.435 31.76V32H117.675V31.76C119.315 31.76 119.435 30.4 119.435 27.84V16.24C119.435 13.68 118.755 12.84 117.395 12.48V12.24L122.515 10.64H122.675V14.56C124.795 12.36 127.315 10.56 129.995 10.56C133.115 10.56 135.075 12.76 135.075 16.8ZM156.063 0.719997V27.08C156.063 29.64 156.703 30.6 158.103 31V31.24L153.663 32.48H153.503L152.863 28.6C151.303 30.76 149.223 32.48 146.343 32.48C141.663 32.48 138.343 28.12 138.343 21.92C138.343 15.08 142.543 10.56 148.103 10.56C149.903 10.56 151.503 11.08 152.823 11.88V6C152.823 3.44 152.143 2.6 150.783 2.24V2L155.903 0.719997H156.063ZM147.943 30.68C149.983 30.68 151.583 29.52 152.823 28.08V17.28C152.823 13.72 151.023 11.12 147.943 11.12C143.863 11.12 141.823 15.76 141.823 20.88C141.823 26.16 143.863 30.68 147.943 30.68Z" fill="black"/>
</svg>
